<svg version="1.2" xmlns="http://www.w3.org/2000/svg" viewBox="0 0 340 70" width="340" height="70">
	<title>Logouri iMemento by CHR</title>
	<style>
		.s0 { fill: #ffffff } 
		.s1 { fill: #ff4200 } 
		.s2 { fill: #ff3c00 } 
		.s3 { fill: #001d5b } 
	</style>
	<path class="s0" d="m183.9 33.8c-4 0-6.2 3.1-6.2 7.5 0 4.6 1.5 7.6 6.2 7.6 4.1 0 6.2-3 6.2-7.5 0-4.7-1.4-7.6-6.2-7.6zm0 12.5c-2 0-3-1.5-3-5 0-3.5 0.8-4.8 3-4.8 2 0 3 1.4 3 4.9 0 3.5-1 4.9-3 4.9z"/>
	<path class="s0" d="m173 31.4h-3v2.7h-1.9v2.5h1.9v7.5c0 3.9 1.8 5.1 6.4 4.5v-2.5c-1.8 0.1-3.4-0.2-3.4-2.3v-7.1h3.4v-2.6h-3.4z"/>
	<path class="s0" d="m117.1 41.2c0-4.5-1.6-7.4-5.9-7.4-3.9 0-6.4 3.1-6.4 7.6 0 4.8 1.7 7.5 6.6 7.5 3 0 4.9-1.4 5.7-3.7l-2.5-0.9c-0.8 1.6-1.8 2-3.2 2-1.8 0-3.4-0.9-3.4-3.9h9c0.1-0.4 0.1-0.7 0.1-1.2zm-3.1-1.2h-5.9c0-2.4 1.3-3.5 3.1-3.5 2.1 0 3 1.1 2.8 3.5z"/>
	<path class="s0" d="m152.7 41.2c0-4.5-1.6-7.4-5.9-7.4-3.8 0-6.3 3.1-6.3 7.6 0 4.8 1.6 7.5 6.5 7.5 3 0 5-1.4 5.7-3.7l-2.5-0.9c-0.7 1.6-1.8 2-3.2 2-1.8 0-3.4-0.9-3.4-3.9h9.1c0-0.4 0-0.7 0-1.2zm-3.1-1.2h-5.9c0-2.4 1.4-3.5 3.1-3.5 2.1 0 3 1.1 2.8 3.5z"/>
	<path class="s0" d="m160.6 33.8c-1.9 0-4.1 0.6-5.5 2v12.8h3.1v-11.5c0.6-0.4 1.6-0.6 2.4-0.6 1.4 0 2.5 0.4 2.5 2.1v10h3.1v-9.9c0-3.8-1.9-4.9-5.6-4.9z"/>
	<path class="s0" d="m132.9 33.8c-1.3 0-2.7 0.4-3.9 1.1-0.9-0.7-2.2-1.1-4.1-1.1-1.8 0-4 0.6-5.4 2v12.8h3.1v-11.5c0.5-0.4 1.5-0.6 2.4-0.6 1.3 0 2.4 0.4 2.4 2.1v10h3.1v-9.9q0-0.8-0.1-1.5c0.6-0.4 1.7-0.7 2.5-0.7 1.4 0 2.5 0.4 2.5 2.1v10h3.1v-9.9c0-3.8-1.9-4.9-5.6-4.9z"/>
	<path class="s0" d="m98.4 29.2l-6 9.7-5.8-9.6h-2.8l-1.4 19.4h3.4l0.9-12.8 5.2 8.5 0.7-0.1 5.4-8.8 0.9 13.1h3.4l-1.3-19.4z"/>
	<path class="s0" d="m78.4 34.1h-3.2v14.5h3.2z"/>
	<path class="s0" d="m76.8 30.8c1.1 0 2-0.8 2-1.9 0-1-0.9-1.9-2-1.9-1.1 0-2 0.9-2 1.9 0 1.1 0.9 1.9 2 1.9z"/>
	<path class="s1" d="m28.4 70c1.3-0.8 4.4-2.7 5.8-3.5v-26.6c0-5 2.1-7.3 5.5-7.3 3.3 0 5.4 2.3 5.4 7.3v18.9c6.9-5.2 11.7-12.8 11.7-20.7 0-9.5-6.6-17.1-16.1-17.1-5.8 0-10.2 3.2-12.3 7.6-2.1-4.4-6.5-7.6-12.4-7.6-9.4 0-16 7.6-16 17.1 0 7.9 4.8 15.5 11.7 20.7v-18.9c0-5 2.1-7.3 5.4-7.3 3.3 0 5.5 2.3 5.5 7.3v26.6c1.4 0.8 4.5 2.7 5.8 3.5z"/>
	<path class="s1" d="m28.5 0c4.5 0 8.3 3.8 8.3 8.3 0 4.6-3.8 8.2-8.3 8.2-4.7 0-8.5-3.6-8.5-8.2 0-4.5 3.8-8.3 8.5-8.3z"/>
	<path class="s0" d="m239.8 44.6q-0.6 1.6-1.5 2.5-0.9 0.9-2.7 1.1l-0.2-1.2q0.9-0.2 1.4-0.5 0.6-0.3 0.9-0.7 0.3-0.5 0.6-1.2h-0.6l-3-9h1.7l2.4 7.8 2.3-7.8h1.7z"/>
	<path class="s0" d="m230.2 35.4q1.5 0 2.5 1.2 0.9 1.3 0.9 3.5 0 1.4-0.5 2.4-0.4 1.1-1.2 1.7-0.8 0.6-1.9 0.6-1.4 0-2.3-1.2l-0.2 1h-1.4v-12.6l1.6-0.2v4.9q1-1.3 2.5-1.3zm-0.5 8.1q1 0 1.6-0.8 0.6-0.9 0.6-2.6 0-1.8-0.6-2.6-0.5-0.9-1.5-0.9-1.2 0-2.1 1.4v4.3q0.3 0.6 0.9 0.9 0.5 0.3 1.1 0.3z"/>
	<path class="s2" d="m339.7 10h-60.9v60h60.9z"/>
	<path class="s0" d="m314.9 49.3v-3.2h0.8c0.6 0 0.9-0.3 0.9-0.8q0-0.3-0.1-0.6h-1.6v-1.1c-0.4-0.1-0.7-0.2-1.1-0.2-0.5 0-0.8 0.2-0.8 0.8v5.1c0 1.3 0.4 1.9 1.9 1.9 1.1 0 1.7-0.3 1.7-1.1q0-0.2 0-0.3c-0.2 0-0.5 0.1-1 0.1-0.6 0-0.7-0.1-0.7-0.6zm-6-2.8c0-0.3 0.2-0.6 0.9-0.6 0.5 0 1.1 0.1 1.5 0.3 0.1-0.1 0.1-0.4 0.1-0.6 0-0.5-0.6-1-1.7-1-1.3 0-2.6 0.7-2.6 2.2 0 0.9 0.6 1.3 1 1.6 0.9 0.4 2 0.5 2 1 0 0.4-0.3 0.5-0.9 0.5-0.7 0-1.4-0.1-1.9-0.2q-0.1 0.4-0.2 0.7c0 0.6 1 0.8 2.1 0.8 1 0 2.7-0.5 2.7-2.1 0-0.5-0.2-1.1-0.9-1.5-0.9-0.5-2.1-0.5-2.1-1.1zm-11.4 0.9c0-2-0.8-2.8-2.7-2.8-0.4 0-0.8 0.1-1.1 0.2v-2.3c-0.3-0.2-0.7-0.2-1-0.2-0.5 0-0.8 0.2-0.8 0.7v7.5c0 0.5 0.3 0.7 0.8 0.7q0.6 0 1-0.2v-4.7c0.3-0.2 0.6-0.3 1-0.3 0.7 0 0.9 0.4 0.9 1.4v3.1c0 0.5 0.4 0.7 0.9 0.7q0.5 0 1-0.2zm-7-2.9c0-0.9-0.5-1.1-2-1.1-2 0-3.5 1.5-3.5 4 0 2.5 1.5 3.8 3.5 3.8 1.6 0 2-0.2 2-1v-0.6c-0.3 0.1-0.9 0.3-1.7 0.3-1.2 0-1.6-1.2-1.6-2.5 0-1.4 0.3-2.6 1.6-2.6 0.7 0 1.3 0.1 1.7 0.2zm43 2.9c0-2-0.9-2.8-2.9-2.8-1.2 0-2.4 0.5-2.8 0.7v5.2c0 0.5 0.3 0.7 0.9 0.7q0.5 0 1-0.2v-4.7c0.3-0.2 0.7-0.2 0.9-0.2 0.8 0 1 0.5 1 1.5v2.9c0 0.5 0.3 0.7 0.8 0.7q0.6 0 1.1-0.2zm-13.7-4.4c0 0.5-0.4 0.8-1.1 0.8-0.7 0-1.1-0.3-1.1-0.8 0-0.6 0.4-0.9 1.1-0.9 0.7 0 1.1 0.3 1.1 0.9zm-1 1.6c-0.3 0-0.7 0.1-1 0.3v5.6c0 0.5 0.3 0.7 0.8 0.7q0.6 0 1-0.2v-5.6c0-0.6-0.3-0.8-0.8-0.8zm-17.2 0c-0.9 0-2.1 0.4-2.5 0.6v5.3c0 0.5 0.3 0.7 0.8 0.7q0.6 0 1.1-0.2v-4.6c0.1-0.2 0.5-0.3 0.8-0.3 0.3 0 0.6 0.1 0.8 0.2 0.2-0.4 0.4-1.7-1-1.7zm22 6.6c1.4 0 2.1-0.2 2.7-0.5l0.1-0.7q0-0.8 0-2.4c0-2.2-0.7-3-2.9-3-1.6 0-2.4 0.4-2 1.7 0.6-0.2 1.3-0.3 1.9-0.3 1 0 1.3 0.3 1.3 1.1-0.3-0.1-0.7-0.1-1.1-0.1-2 0-2.7 0.8-2.7 2.1 0 1.2 0.9 2.1 2.7 2.1zm0.1-1.3c-0.5 0-0.9-0.2-0.9-0.8q0-1 0.9-1c0.4 0 0.7 0.1 1 0.1v1.6c-0.2 0.1-0.7 0.1-1 0.1zm-17.8-6.9c0 0.5-0.4 0.8-1.1 0.8-0.7 0-1-0.3-1-0.8 0-0.6 0.4-0.9 1-0.9 0.7 0 1.1 0.3 1.1 0.9zm-0.9 1.6c-0.4 0-0.8 0.1-1.1 0.3v5.6c0 0.5 0.3 0.7 0.8 0.7q0.6 0 1.1-0.2v-5.6c0-0.6-0.3-0.8-0.8-0.8z"/>
	<path class="s0" d="m306.5 54.4c-1.8 0-3.2 1-3.2 3.3 0 2.3 1.4 3.3 3.2 3.3 1.8 0 3.1-1 3.1-3.3 0-2.3-1.3-3.3-3.1-3.3zm0 5.3c-0.7 0-1.3-0.4-1.3-2 0-1.7 0.6-2 1.3-2 0.9 0 1.3 0.3 1.3 2 0 1.6-0.6 2-1.3 2zm8.9-5.3c-0.4 0-0.7 0.1-1 0.2v4.8q-0.4 0.3-1 0.3c-0.7 0-0.9-0.6-0.9-1.6v-3c0-0.5-0.3-0.7-0.8-0.7-0.4 0-0.8 0.1-1.1 0.2v3.6c0 2 0.8 2.8 2.8 2.8 1.3 0 2.4-0.4 2.8-0.6v-5.3c0-0.5-0.3-0.7-0.8-0.7zm-15.8 0.3v5.6c0 0.4 0.3 0.6 0.8 0.6 0.5 0 1 0 1.2-0.1v-6.1h1c0.8 0 1.2-0.2 1.2-0.7q0-0.3-0.1-0.7h-5.2c-0.8 0-1.1 0.4-1.1 0.9 0 0.2 0 0.3 0 0.5zm20.7-0.3c-0.8 0-2 0.4-2.5 0.6v5.2c0 0.6 0.4 0.7 0.9 0.7q0.5 0 1-0.2v-4.6c0.2-0.1 0.6-0.2 0.9-0.2 0.3 0 0.5 0 0.8 0.1 0.2-0.4 0.4-1.6-1.1-1.6z"/>
	<path class="s0" d="m306.9 33.2c3.2-0.7 6.8-1.5 9.9-1.5q3.8 0 6.8 1.2 0.2-1.3 0.2-2.5c0-3.8-1.5-7.3-4.3-10-2.7-2.6-6.4-4-10.3-4-3.9 0-7.5 1.4-10.3 4-2.7 2.7-4.2 6.2-4.2 10q0 1.7 0.4 3.3c1.4 0.5 2.8 0.7 5.1 0.7 1.6 0 4.1-0.6 6.7-1.2z"/>
	<path class="s0" d="m328.1 38c-3-3.2-6.4-4.6-11.3-4.6-5.4 0-12.7 2.7-16.7 2.7-3.2-0.1-5.4-0.6-9-2.3q-0.1-0.1-0.2-0.1c0 0-0.1 0.1-0.1 0.1q0.1 0.1 0.2 0.2c2.9 3.2 6.4 4.6 11.3 4.6 5.2 0 12.8-2.7 16.7-2.7 3.3 0 5.3 0.6 9 2.3q0.1 0.1 0.1 0.1 0.1 0 0.1-0.1 0-0.1-0.1-0.2z"/>
	<path class="s3" d="m311.7 25.4c-0.1-0.1-3.3-0.9-3.4-0.7 0 0.1 0.5 0.8 0.6 0.8 0.1 0 3 0.4 3 0.4 0.3 0-0.2-0.5-0.2-0.5z"/>
	<path class="s3" d="m316.5 29.2c0-0.1-1-0.2-1.8-0.6-0.3-0.1-0.9-1.4-1-1.4-0.1 0-0.2 0.2-0.2 0.2 0 0.1 0.5 1.1 0.5 1.2-0.2 0.3-0.7 1-0.7 1.1 0 0 0.2 0.3 0.3 0.3 0 0 0.7-0.7 0.9-0.8 0.2-0.1 1.4 0.2 1.8 0.2 0.3 0.1 0.2-0.2 0.2-0.2z"/>
	<path class="s3" d="m307 25.8c-0.7-0.2-1.4-0.6-2-0.7-0.6-0.1-1.2-0.4-1.4-0.3-0.1 0.1 0.2 0.5 0.2 0.9 0 0.3-0.3 0.8-0.2 0.9 0.1 0.1 0.9 0.1 1.4-0.1 0.5-0.3 1.6-0.2 2.1-0.2 0.4 0 0.5-0.4-0.1-0.5z"/>
	<path class="s3" d="m309.2 18.1c-6.9 0-12.6 5.5-12.6 12.3q0 2 0.7 3.8c0.8 0.1 1.7 0.2 2.9 0.2q1 0 2.4-0.3c0.3-0.5 0.9-1.3 1.8-1.9 0.3-0.2-0.2-0.3-0.5-0.4-0.3-0.1-0.5 0-0.8-0.3-0.3-0.2 0-1 0-1.1 0-0.2-0.4-0.6-0.4-0.7-0.1-0.1 0.1-0.3 0.1-0.3 0 0-0.5-0.5 0-0.9 0.1-0.1 0.1-0.2 0.1-0.2 0 0-0.1-0.2-0.3-0.5-0.2-0.3-0.1-0.7 0-0.9q0.5-0.6 0.3-1.5c-0.3-0.9 0.5-1.1 1-1.7 0-0.1 0.5-0.3 0.6-0.5 0.1-0.3 0.6-1.1 0.6-1.4 0-0.3-0.3-0.4 0-0.6 0.2-0.1 4 0.6 4.4 0.8 0.5 0.2 0.3 0.6 0.4 0.7 0.2 0.1 0.6 0.2 0.7 0.4q0.1 0.1 0.3 0.3c-0.6-0.1-1.3-0.3-1.8-0.3-0.7-0.2-1.1-0.3-1.1-0.3l-0.4 0.1c0 0-0.4-0.1-0.4-0.1-0.7-0.1-0.9-0.1-0.9-0.1-0.4 0-0.6 0.5 0 0.5 0.4 0 4 0.7 5.6 1q0.4 0.1 0.4 0.1c0.2 0.2 0.5 0.9 0.6 1.1 0.2 0.2 0.4 0.5 0.8 0.6 0.3 0 0.9-0.6 1.4-0.4 0.5 0.2 1.4 2 1.8 2.2 0.4 0.2 0.7 1.2 1 1.4 0.2 0.2 0.8-0.3 1.3 0.1 0.4 0.5-0.1 1.1 0.1 1.3 0.2 0.3 1.1 1.2 1.4 1.5q0.5 0.1 1 0.2v-0.1q0.1-0.9 0.1-1.8c0-6.8-5.6-12.3-12.6-12.3z"/>
	<path class="s3" d="m308.4 31.4q-0.8-0.1-1.6-0.3c-1-0.1-1.9-0.3-2.9-0.2-0.1 0-0.6 0.1-0.5 0.4 0 0.1 0.1 0.1 0.4 0.1 0.6 0.2 1.2 0.5 1.8 0.5 0.8 0 1.1 0.1 1.8 0.5 0.5 0.2 0.9 0.2 1.4 0.4q0.2-0.1 0.3 0 0.7-0.2 1.3-0.3c-0.3-0.2-0.6-0.3-0.7-0.5-0.4-0.4-0.8-0.6-1.3-0.6z"/>
	<path class="s3" d="m311.4 30.8c-0.2 0-0.2 0.5 0.2 0.6 0.1 0 1.6 0.3 2.7 0.5q1.3-0.2 2.5-0.2 0.3 0 0.7 0c-0.5-0.1-2.4-0.3-2.4-0.3 0 0-3.5-0.6-3.7-0.6z"/>
</svg>