<svg width="340" height="70" viewBox="0 0 340 70" fill="none" xmlns="http://www.w3.org/2000/svg">
<path d="M183.9 33.829C179.858 33.829 177.678 36.914 177.678 41.3299C177.678 45.9492 179.211 48.9021 183.9 48.9021C187.978 48.9021 190.123 45.9492 190.123 41.402C190.123 36.6937 188.678 33.829 183.9 33.829ZM183.9 46.2573C181.888 46.2573 180.855 44.8031 180.855 41.3299C180.855 37.8322 181.735 36.4734 183.9 36.4734C185.942 36.4734 186.945 37.9047 186.945 41.402C186.945 44.8916 185.889 46.2573 183.9 46.2573Z" fill="#68676C"/>
<path d="M173.044 31.4464H169.954V34.0938H168.057V36.65H169.954V44.0772C169.954 48.0305 171.805 49.2469 176.442 48.6389V46.0505C174.55 46.1987 173.044 45.8983 173.044 43.7624V36.6504H176.442V34.0942H173.044V31.4464Z" fill="#68676C"/>
<path d="M117.127 41.171C117.127 36.7034 115.532 33.829 111.155 33.829C107.337 33.829 104.844 36.8704 104.844 41.3524C104.844 46.2217 106.529 48.9021 111.357 48.9021C114.424 48.9021 116.34 47.478 117.126 45.2209L114.616 44.3379C113.847 45.8607 112.809 46.2568 111.403 46.2568C109.619 46.2568 108.008 45.3514 108.008 42.4028L117.044 42.393C117.093 42.0227 117.127 41.6867 117.127 41.171ZM114.016 39.9554L108.085 39.9652C108.085 37.575 109.436 36.4734 111.194 36.4734C113.254 36.4734 114.214 37.5703 114.016 39.9554Z" fill="#68676C"/>
<path d="M152.743 41.171C152.743 36.7034 151.148 33.829 146.77 33.829C142.953 33.829 140.459 36.8704 140.459 41.3524C140.459 46.2217 142.145 48.9021 146.973 48.9021C150.04 48.9021 151.956 47.478 152.742 45.2209L150.232 44.3379C149.463 45.8607 148.425 46.2568 147.019 46.2568C145.234 46.2568 143.623 45.3514 143.623 42.4028L152.659 42.393C152.709 42.0227 152.743 41.6867 152.743 41.171ZM149.632 39.9554L143.701 39.9652C143.701 37.575 145.052 36.4734 146.809 36.4734C148.87 36.4734 149.829 37.5703 149.632 39.9554Z" fill="#68676C"/>
<path d="M160.554 33.829C158.713 33.829 156.492 34.4162 155.126 35.7844V48.6373L158.215 48.6381V37.1085C158.752 36.678 159.772 36.4734 160.598 36.4734C161.968 36.4734 163.07 36.8861 163.07 38.6436V48.6373H166.159V38.6767C166.16 34.9205 164.262 33.829 160.554 33.829Z" fill="#68676C"/>
<path d="M132.883 33.829C131.609 33.829 130.21 34.2167 129.017 34.909C128.107 34.1578 126.776 33.829 124.939 33.829C123.098 33.829 120.864 34.4162 119.499 35.7844V48.6373L122.588 48.6381V37.1085C123.125 36.678 124.145 36.4734 124.971 36.4734C126.341 36.4734 127.443 36.8861 127.443 38.6436V48.6373H130.532V38.6767C130.532 38.133 130.491 37.6462 130.412 37.2102C130.991 36.8115 132.137 36.4734 132.915 36.4734C134.285 36.4734 135.386 36.8861 135.386 38.6436V48.6373H138.476V38.6767C138.476 34.92 136.591 33.829 132.883 33.829Z" fill="#68676C"/>
<path d="M98.4585 29.2449L92.3933 38.9076L86.6307 29.2449H83.8944L82.3496 48.6373H85.7482L86.7711 35.8827L91.8825 44.362H92.5406L98.0635 35.5984L98.8556 48.6373H102.254L101.062 29.2449H98.4585Z" fill="#68676C"/>
<path d="M78.3793 34.0939H75.2285V48.639H78.3793V34.0939Z" fill="#68676C"/>
<path d="M76.8041 30.8453C77.9111 30.8453 78.8085 29.985 78.8085 28.9237C78.8085 27.8625 77.9111 27.0022 76.8041 27.0022C75.6972 27.0022 74.7998 27.8625 74.7998 28.9237C74.7998 29.985 75.6972 30.8453 76.8041 30.8453Z" fill="#68676C"/>
<path d="M28.3797 70C29.7082 69.2174 32.7753 67.3497 34.2048 66.4506V39.8767C34.2048 34.9312 36.3084 32.6368 39.6547 32.6368C42.999 32.6368 45.1021 34.9312 45.1021 39.8767V58.8306C51.9506 53.6389 56.7556 46.0167 56.7556 38.0768C56.7556 28.5645 50.169 20.9991 40.7417 20.9991C34.8989 20.9991 30.4731 24.221 28.3793 28.6217C26.2842 24.2206 21.858 20.9991 16.0164 20.9991C6.58706 20.9991 0 28.5641 0 38.0768C0 46.0167 4.80632 53.6393 11.6564 58.8306V39.8767C11.6564 34.9312 13.7601 32.6368 17.1039 32.6368C20.4489 32.6368 22.5526 34.9312 22.5526 39.8767H22.5513V66.4506C23.9837 67.3497 27.0508 69.2174 28.3797 70Z" fill="#FF4200"/>
<path d="M28.5058 0C32.9752 0 36.8065 3.76043 36.8065 8.28736C36.8065 12.9427 32.9748 16.5116 28.5058 16.5116C23.8471 16.5116 19.9521 12.9427 19.9521 8.28736C19.9521 3.76043 23.8471 0 28.5058 0Z" fill="#FF4200"/>
<path d="M239.771 44.6155C239.42 45.6581 238.927 46.4798 238.292 47.0805C237.669 47.6925 236.774 48.0608 235.606 48.1855L235.436 46.9615C236.026 46.8595 236.496 46.7121 236.847 46.5195C237.199 46.3268 237.476 46.0775 237.68 45.7715C237.896 45.4768 238.094 45.0745 238.275 44.5645H237.748L234.739 35.6055H236.405L238.802 43.4255L241.148 35.6055H242.763L239.771 44.6155Z" fill="#737373"/>
<path d="M230.22 35.4015C231.24 35.4015 232.05 35.8151 232.651 36.6425C233.252 37.4585 233.552 38.6031 233.552 40.0765C233.552 41.0058 233.41 41.8275 233.127 42.5415C232.844 43.2441 232.436 43.7938 231.903 44.1905C231.37 44.5758 230.747 44.7685 230.033 44.7685C229.092 44.7685 228.299 44.3718 227.653 43.5785L227.5 44.5645H226.123V32.0015L227.687 31.8145V36.7275C228.333 35.8435 229.177 35.4015 230.22 35.4015ZM229.659 43.5275C230.35 43.5275 230.889 43.2498 231.274 42.6945C231.671 42.1278 231.869 41.2551 231.869 40.0765C231.869 38.8638 231.688 37.9911 231.325 37.4585C230.962 36.9145 230.447 36.6425 229.778 36.6425C228.985 36.6425 228.288 37.1071 227.687 38.0365V42.3205C227.925 42.6945 228.214 42.9891 228.554 43.2045C228.905 43.4198 229.274 43.5275 229.659 43.5275Z" fill="#737373"/>
<path d="M339.675 10H278.764V70H339.675V10Z" fill="#FF3C00"/>
<path d="M314.863 49.2662V46.0762H315.67C316.335 46.0762 316.612 45.8329 316.612 45.301C316.612 45.1017 316.569 44.8917 316.489 44.7257H314.863V43.641C314.539 43.474 314.186 43.4192 313.844 43.4192C313.301 43.4192 313.003 43.619 313.003 44.1616V49.2667C313.003 50.6404 313.423 51.2491 314.907 51.2491C316.005 51.2491 316.646 50.9058 316.646 50.1075C316.646 49.9984 316.635 49.8749 316.603 49.7535C316.379 49.8319 316.104 49.8985 315.582 49.8985C315.016 49.8969 314.863 49.7535 314.863 49.2662ZM308.938 46.4867C308.938 46.1874 309.082 45.9441 309.823 45.9441C310.331 45.9441 310.853 46.0332 311.272 46.1874C311.35 46.0644 311.439 45.7899 311.439 45.5557C311.439 45.091 310.843 44.6043 309.745 44.6043C308.384 44.6043 307.109 45.3467 307.109 46.751C307.109 47.6583 307.651 48.1252 308.139 48.3583C309.015 48.7999 310.099 48.8891 310.099 49.3994C310.099 49.7658 309.778 49.8985 309.158 49.8985C308.549 49.8985 307.841 49.833 307.287 49.6879C307.208 49.9313 307.143 50.1746 307.143 50.418C307.143 51.0379 308.051 51.2491 309.202 51.2491C310.232 51.2491 311.861 50.6952 311.861 49.1335C311.861 48.5802 311.663 47.9699 311.041 47.6277C310.089 47.0513 308.938 47.0513 308.938 46.4867ZM297.517 47.3946C297.517 45.424 296.7 44.6048 294.838 44.6048C294.407 44.6048 293.963 44.6832 293.73 44.7697V42.4903C293.421 42.3345 293.033 42.2781 292.702 42.2781C292.169 42.2781 291.87 42.4779 291.87 43.0076V50.4637C291.87 50.9934 292.169 51.1825 292.702 51.1825C293.077 51.1825 293.421 51.1277 293.73 50.9842V46.2771C293.954 46.1428 294.286 46.0424 294.716 46.0424C295.381 46.0424 295.647 46.4313 295.647 47.3602V50.4615C295.647 50.9917 295.957 51.1803 296.477 51.1803C296.842 51.1803 297.197 51.126 297.518 50.9821L297.517 47.3946ZM290.529 44.4818C290.529 43.6066 289.987 43.3961 288.547 43.3961C286.466 43.3961 285.002 44.8922 285.002 47.4069C285.002 49.899 286.466 51.2496 288.547 51.2496C290.108 51.2496 290.529 51.0385 290.529 50.1752V49.6546C290.198 49.754 289.599 49.8749 288.846 49.8749C287.595 49.8749 287.185 48.7451 287.185 47.4053C287.185 46.0424 287.505 44.7917 288.846 44.7917C289.477 44.7917 290.119 44.9024 290.529 45.0131V44.4818ZM333.481 47.3946C333.481 45.424 332.616 44.6048 330.645 44.6048C329.395 44.6048 328.232 45.1135 327.82 45.3128V50.4637C327.82 50.9934 328.13 51.1825 328.651 51.1825C329.017 51.1825 329.383 51.1277 329.704 50.9842V46.2653C329.969 46.0891 330.368 46.044 330.645 46.044C331.365 46.044 331.597 46.5667 331.597 47.6175V50.4647C331.597 50.995 331.907 51.1835 332.428 51.1835C332.795 51.1835 333.158 51.1185 333.481 50.9729V47.3946H333.481ZM319.781 42.9754C319.781 43.496 319.403 43.8376 318.695 43.8376C318.007 43.8376 317.632 43.4944 317.632 42.9754C317.632 42.4436 318.029 42.1008 318.695 42.1008C319.382 42.1008 319.781 42.443 319.781 42.9754ZM318.804 44.6483C318.451 44.6483 318.052 44.6913 317.752 44.86V50.4642C317.752 50.9944 318.075 51.183 318.594 51.183C318.959 51.183 319.325 51.1287 319.647 50.9848V45.3795C319.648 44.8476 319.349 44.6483 318.804 44.6483ZM301.572 44.6043C300.74 44.6043 299.5 45.0362 299.091 45.236V50.4631C299.091 50.9928 299.39 51.1819 299.922 51.1819C300.286 51.1819 300.652 51.1271 300.973 50.9837V46.3647C301.129 46.2197 301.527 46.1305 301.793 46.1305C302.126 46.1305 302.359 46.1638 302.624 46.2632C302.846 45.8877 303.022 44.6043 301.572 44.6043ZM323.645 51.2491C324.997 51.2491 325.693 51.038 326.347 50.7172L326.392 49.9533C326.414 49.4328 326.448 48.6688 326.448 47.6282C326.448 45.4353 325.65 44.6043 323.468 44.6043C321.938 44.6043 321.119 44.9927 321.496 46.3416C322.106 46.1213 322.782 46.0198 323.423 46.0198C324.354 46.0198 324.675 46.3196 324.675 47.1276C324.374 47.0491 323.967 46.9943 323.644 46.9943C321.563 46.9943 320.866 47.813 320.866 49.0647C320.867 50.3186 321.751 51.2491 323.645 51.2491ZM323.691 49.9404C323.224 49.9404 322.783 49.6976 322.783 49.0787C322.783 48.4577 323.115 48.1257 323.735 48.1257C324.055 48.1257 324.398 48.159 324.676 48.2165V49.754C324.452 49.8641 324.032 49.9404 323.691 49.9404ZM305.925 42.9754C305.925 43.496 305.538 43.8376 304.84 43.8376C304.142 43.8376 303.765 43.4944 303.765 42.9754C303.765 42.4436 304.175 42.1008 304.84 42.1008C305.514 42.1008 305.925 42.443 305.925 42.9754ZM304.951 44.6483C304.583 44.6483 304.207 44.6913 303.888 44.86V50.4642C303.888 50.9944 304.208 51.183 304.727 51.183C305.117 51.183 305.47 51.1287 305.803 50.9848V45.3795C305.803 44.8476 305.482 44.6483 304.951 44.6483Z" fill="white"/>
<path d="M306.479 54.36C304.706 54.36 303.321 55.3791 303.321 57.6735C303.321 59.9674 304.707 61.0091 306.479 61.0091C308.251 61.0091 309.636 59.9674 309.636 57.6735C309.636 55.3791 308.251 54.36 306.479 54.36ZM306.479 59.658C305.759 59.658 305.182 59.3475 305.182 57.674C305.182 56.0242 305.759 55.7014 306.479 55.7014C307.387 55.7014 307.797 56.0242 307.797 57.674C307.797 59.3475 307.199 59.658 306.479 59.658ZM315.409 54.4051C315.01 54.4051 314.689 54.4824 314.368 54.6151V59.4141C314.126 59.5806 313.805 59.659 313.427 59.659C312.695 59.659 312.496 59.1267 312.496 58.0732V55.1384C312.496 54.6065 312.197 54.4062 311.654 54.4062C311.257 54.4062 310.946 54.5072 310.612 54.6167V58.1957C310.612 60.156 311.446 61.0112 313.428 61.0112C314.667 61.0112 315.82 60.59 316.24 60.3902V55.1395C316.239 54.6049 315.929 54.4051 315.409 54.4051ZM299.575 54.7253V60.3209C299.575 60.7421 299.884 60.9414 300.418 60.9414C300.949 60.9414 301.382 60.8635 301.569 60.7641V54.7253H302.632C303.443 54.7253 303.808 54.4717 303.808 53.9511C303.808 53.7959 303.786 53.5525 303.743 53.2533H298.522C297.704 53.2533 297.359 53.6729 297.359 54.1832C297.359 54.3933 297.371 54.5276 297.415 54.7253H299.575ZM320.296 54.36C319.464 54.36 318.224 54.7929 317.802 54.9928V60.2221C317.802 60.7528 318.113 60.9419 318.642 60.9419C319.011 60.9419 319.373 60.886 319.697 60.7426V56.1226C319.851 55.977 320.239 55.8878 320.515 55.8878C320.848 55.8878 321.08 55.9211 321.356 56.0221C321.57 55.6455 321.734 54.36 320.296 54.36Z" fill="white"/>
<path d="M306.902 33.2464C310.093 32.5303 313.707 31.7186 316.783 31.7186C319.303 31.7186 321.563 32.1392 323.554 32.9499L323.562 32.8988C323.721 32.0597 323.799 31.2061 323.799 30.3621C323.799 26.5903 322.283 23.0651 319.53 20.4349C316.788 17.817 313.132 16.3762 309.236 16.3762C305.34 16.3762 301.683 17.8176 298.942 20.4349C296.189 23.0651 294.671 26.5908 294.671 30.3621C294.671 31.4988 294.813 32.6329 295.095 33.7433C296.494 34.1957 297.926 34.3918 300.152 34.3918C301.809 34.3928 304.284 33.8347 306.902 33.2464Z" fill="white"/>
<path d="M328.08 37.9679C325.129 34.7849 321.685 33.4128 316.782 33.4128C311.407 33.4128 304.129 36.0871 300.142 36.0871C296.903 36.0447 294.749 35.5354 291.117 33.7948C291.05 33.7663 290.982 33.7389 290.948 33.7389C290.898 33.7389 290.846 33.7808 290.846 33.8227C290.846 33.8797 290.916 33.9506 290.999 34.0355C293.917 37.2179 297.377 38.59 302.279 38.59C307.54 38.59 315.104 35.9168 319.024 35.9168C322.349 35.9168 324.282 36.4546 327.964 38.2086C328.031 38.237 328.082 38.2644 328.114 38.2644C328.168 38.2644 328.2 38.222 328.2 38.1796C328.2 38.1382 328.147 38.0522 328.08 37.9679Z" fill="white"/>
<path d="M311.702 25.3768C311.61 25.2844 308.376 24.5414 308.337 24.7203C308.331 24.7869 308.812 25.4525 308.925 25.4719C309.005 25.4858 311.871 25.8511 311.871 25.8511C312.19 25.8581 311.736 25.4112 311.702 25.3768Z" fill="#001D5B"/>
<path d="M316.508 29.182C316.508 29.1089 315.458 28.987 314.657 28.5916C314.404 28.467 313.769 27.2308 313.705 27.2152C313.648 27.1997 313.514 27.3678 313.499 27.4318C313.474 27.5403 314.036 28.5067 313.989 28.5873C313.825 28.8661 313.272 29.6338 313.262 29.6784C313.254 29.7455 313.452 29.9631 313.565 29.9819C313.605 29.9894 314.284 29.2545 314.507 29.1906C314.667 29.1455 315.87 29.4399 316.29 29.4479C316.609 29.4544 316.508 29.2185 316.508 29.182Z" fill="#001D5B"/>
<path d="M306.964 25.7571C306.292 25.6164 305.649 25.2038 305.047 25.098C304.443 24.9911 303.772 24.6725 303.594 24.8143C303.505 24.8858 303.816 25.293 303.816 25.6647C303.816 26.037 303.51 26.4958 303.578 26.5861C303.691 26.7397 304.474 26.7317 305.018 26.4539C305.534 26.1896 306.629 26.275 307.054 26.275C307.478 26.2756 307.635 25.8984 306.964 25.7571Z" fill="#001D5B"/>
<path d="M309.236 18.1256C302.282 18.1256 296.623 23.616 296.623 30.3628C296.623 31.6844 296.857 32.992 297.291 34.2351C298.109 34.3431 299.028 34.3925 300.151 34.3925C300.853 34.3925 301.694 34.292 302.632 34.1346C302.922 33.5792 303.546 32.8125 304.429 32.2238C304.723 32.0411 304.22 31.8848 303.933 31.8063C303.646 31.7279 303.444 31.8316 303.123 31.5447C302.804 31.2579 303.13 30.539 303.123 30.3693C303.116 30.1995 302.659 29.8331 302.652 29.7418C302.647 29.65 302.783 29.4018 302.783 29.4018C302.783 29.4018 302.306 28.8984 302.811 28.4611C302.92 28.3757 302.889 28.3037 302.889 28.3037C302.889 28.3037 302.77 28.0818 302.566 27.8078C302.364 27.5328 302.456 27.0826 302.566 26.9451C302.936 26.4895 303.013 25.9905 302.855 25.4317C302.583 24.4734 303.375 24.3331 303.856 23.7051C303.94 23.5945 304.371 23.4172 304.509 23.1819C304.646 22.9471 305.103 22.0586 305.111 21.7975C305.117 21.5353 304.835 21.379 305.084 21.2227C305.331 21.0652 309.095 21.7975 309.527 21.9801C309.959 22.1633 309.762 22.5952 309.919 22.7124C310.077 22.8295 310.467 22.9143 310.623 23.0777C310.682 23.1384 310.768 23.2539 310.862 23.3806C310.313 23.2705 309.57 23.148 309.065 23.0691C308.411 22.9235 308.037 22.8381 308.037 22.8381L307.579 22.8574C307.579 22.8574 307.236 22.8219 307.236 22.8236C306.494 22.7252 306.29 22.6984 306.29 22.6984C305.935 22.7344 305.651 23.1738 306.253 23.2093C306.686 23.2345 310.302 23.9195 311.949 24.2198C312.174 24.2644 312.292 24.3074 312.321 24.3321C312.541 24.5147 312.79 25.2469 312.922 25.4296C313.051 25.6133 313.314 25.9335 313.652 25.9781C313.993 26.0243 314.559 25.3641 315.091 25.5865C315.617 25.8083 316.461 27.579 316.893 27.7821C317.325 27.9841 317.612 29.0101 317.86 29.1928C318.109 29.376 318.747 28.8721 319.192 29.3497C319.636 29.8278 319.082 30.4284 319.27 30.6309C319.503 30.8813 320.423 31.7881 320.724 32.1018C321.046 32.1673 321.36 32.242 321.67 32.3232L321.688 32.2286C321.789 31.6146 321.844 30.9909 321.844 30.3634C321.847 23.6154 316.189 18.1256 309.236 18.1256Z" fill="#001D5B"/>
<path d="M308.441 31.3537C307.892 31.286 307.339 31.2161 306.791 31.1361C305.775 30.9889 304.944 30.8449 303.918 30.8562C303.783 30.8578 303.323 31.0147 303.355 31.2811C303.365 31.3596 303.545 31.3821 303.807 31.4482C304.409 31.5981 305.016 31.9194 305.564 31.9194C306.364 31.9194 306.686 32.001 307.371 32.3706C307.852 32.6274 308.303 32.6312 308.833 32.7526C308.937 32.7252 309.038 32.7349 309.137 32.7542C309.569 32.6618 310.002 32.5715 310.438 32.4861C310.132 32.3464 309.827 32.1627 309.656 31.9994C309.281 31.6438 308.937 31.4138 308.441 31.3537Z" fill="#001D5B"/>
<path d="M311.408 30.7674C311.177 30.7551 311.166 31.3363 311.591 31.4035C311.692 31.4191 313.201 31.692 314.311 31.8655C315.16 31.7731 315.99 31.7188 316.783 31.7188C317.026 31.7188 317.267 31.7236 317.507 31.7306C316.958 31.6205 315.086 31.3653 315.086 31.3653C315.086 31.3653 311.637 30.7787 311.408 30.7674Z" fill="#001D5B"/>
</svg>
